<!--?xml version="1.0" encoding="utf-8"?-->
<!-- Generator: Adobe Illustrator 18.1.1, SVG Export Plug-In . SVG Version: 6.00 Build 0)  -->

<svg version="1.1" id="_x32_" xmlns="http://www.w3.org/2000/svg" xmlns:xlink="http://www.w3.org/1999/xlink" x="0px" y="0px" viewBox="0 0 512 512" style="width: 256px; height: 256px; opacity: 1;" xml:space="preserve">
<style type="text/css">
	.st0{fill:#4B4B4B;}
</style>
<g>
	<path class="st0" d="M454.608,111.198L280.557,6.797C272.992,2.261,264.5,0,256,0C247.493,0,239,2.261,231.442,6.797
		L57.385,111.198c-5.342,3.211-9.917,7.37-13.549,12.2l207.899,124.701c2.622,1.575,5.9,1.575,8.523,0l207.906-124.701
		C464.524,118.568,459.95,114.409,454.608,111.198z M151.862,137.127c-10.956,7.618-28.453,7.422-39.078-0.444
		c-10.617-7.867-10.346-20.413,0.618-28.039c10.956-7.618,28.46-7.422,39.078,0.444
		C163.105,116.948,162.826,129.501,151.862,137.127z M217.103,96.233c-10.956,7.61-28.454,7.422-39.078-0.452
		c-10.618-7.86-10.347-20.413,0.617-28.031c10.957-7.626,28.461-7.422,39.086,0.437C228.345,76.054,228.066,88.6,217.103,96.233z
		 M267.74,207.235c-10.956,7.618-28.453,7.422-39.078-0.444c-10.617-7.859-10.346-20.413,0.618-28.039
		c10.957-7.618,28.461-7.422,39.078,0.444C278.982,187.064,278.704,199.609,267.74,207.235z M280.399,60.207
		c-10.956,7.611-28.453,7.423-39.078-0.452c-10.625-7.859-10.346-20.413,0.618-28.031c10.956-7.625,28.453-7.43,39.078,0.438
		C291.642,40.028,291.363,52.574,280.399,60.207z M332.98,166.341c-10.956,7.611-28.453,7.422-39.078-0.444
		c-10.616-7.866-10.346-20.421,0.618-28.039c10.956-7.618,28.461-7.422,39.078,0.438
		C344.223,146.162,343.944,158.708,332.98,166.341z M396.276,130.316c-10.956,7.61-28.461,7.422-39.077-0.452
		c-10.625-7.86-10.347-20.413,0.617-28.031c10.957-7.626,28.453-7.422,39.078,0.437C407.519,110.136,407.24,122.682,396.276,130.316
		z" style="fill: rgb(247, 247, 247);"></path>
	<path class="st0" d="M246.136,258.362L38.004,133.525c-2.457,5.802-3.798,12.117-3.798,18.62v208.087
		c0,16.766,8.801,32.312,23.178,40.939l174.058,104.402c5.825,3.496,12.2,5.629,18.71,6.428V265.468
		C250.152,262.559,248.631,259.862,246.136,258.362z M75.846,369.742c-12.056-6.579-21.837-21.679-21.837-33.728
		c0-12.056,9.781-16.502,21.837-9.932c12.056,6.57,21.822,21.672,21.822,33.72C97.668,371.859,87.903,376.305,75.846,369.742z
		 M75.846,247.866c-12.056-6.571-21.837-21.672-21.837-33.728c0-12.05,9.781-16.502,21.837-9.924
		c12.056,6.563,21.822,21.664,21.822,33.72C97.668,249.99,87.903,254.436,75.846,247.866z M136.777,342.011
		c-12.056-6.57-21.823-21.672-21.823-33.728c0-12.048,9.766-16.495,21.823-9.924s21.83,21.672,21.83,33.72
		C158.607,344.136,148.833,348.582,136.777,342.011z M197.714,436.165c-12.056-6.571-21.83-21.672-21.83-33.728
		s9.773-16.502,21.83-9.932c12.056,6.57,21.83,21.672,21.83,33.728C219.544,438.29,209.771,442.735,197.714,436.165z
		 M197.714,314.29c-12.056-6.571-21.83-21.664-21.83-33.721c0-12.056,9.773-16.502,21.83-9.931
		c12.056,6.571,21.83,21.672,21.83,33.728C219.544,316.414,209.771,320.868,197.714,314.29z" style="fill: rgb(247, 247, 247);"></path>
	<path class="st0" d="M473.996,133.525L265.863,258.362c-2.494,1.499-4.023,4.197-4.023,7.106V512
		c6.51-0.799,12.893-2.931,18.717-6.428l174.05-104.402c14.384-8.627,23.186-24.173,23.186-40.939V152.145
		C477.794,145.642,476.452,139.327,473.996,133.525z M309.546,436.165c-12.056,6.57-21.83,2.125-21.83-9.932
		c0-12.056,9.773-27.158,21.83-33.728c12.056-6.571,21.822-2.125,21.822,9.932S321.602,429.594,309.546,436.165z M370.476,342.011
		c-12.049,6.571-21.822,2.125-21.822-9.931c0-12.049,9.773-27.149,21.822-33.72c12.064-6.571,21.837-2.125,21.837,9.924
		C392.313,320.34,382.54,335.441,370.476,342.011z M431.421,247.866c-12.056,6.57-21.83,2.124-21.83-9.932
		c0-12.057,9.773-27.157,21.83-33.72c12.049-6.578,21.822-2.125,21.822,9.924C453.243,226.194,443.47,241.295,431.421,247.866z" style="fill: rgb(247, 247, 247);"></path>
</g>
</svg>
